Patient4_TMGait_0pt5_02_right_41_EMG.mot
version=1
nRows=40
nColumns=33
inDegrees=no
endheader
time	1LAddLong	2LGlutMax	3LGlutMed	4LIliopsoas	5LSemiMemb	6LBicFemLong	7LRecFem	8LVastMed	9LVastLat	10LGasMed	11LTibAnt	12lTibPost	13LPeroneusLong	14LSol	15LExtDigLong	16LFlexDigLong	17RAddLong	18RGlutMax	19RGlutMed	20RIliopsoas	21RSemiMemb	22RBicFemLong	23RRecFem	24RVastMed	25RVastLat	26RGasMed	27RTibAnt	28RTibPost	29RPeroneusLong	30RSol	31RExtDigLong	32RFlexDigLong
54.48	0.014038	-0.063629	-0.049744	0.013275	0.067596	-0.045776	0.064392	-0.011902	0.06485	0.10834	0.01709	-0.017853	-0.40405	-0.13062	-0.007935	-0.19989	0.1413	0.25192	-0.12207	0.001678	0.06424	-0.044708	-0.001984	-0.014648	0.059814	-0.065918	0.47653	-0.028687	-0.054016	-0.46127	-0.004272	-0.021057
54.481	-0.000763	-0.07782	-0.024261	0.000305	0.019684	-0.07431	0.019379	-0.005646	0.015717	0.12039	-0.019531	-0.019073	0.71762	-0.34302	-0.036926	0.17288	0.1358	0.18005	0.058746	-0.06073	0.42175	-0.055695	0.014801	-0.078278	0.063171	-0.11856	0.37552	0.002594	-0.14114	-0.14358	-0.006866	-0.020447
54.482	-0.016479	-0.035095	-0.039215	0.000305	-0.035095	-0.029755	0.010529	0.001526	-0.027161	0.069733	-0.049286	-0.009155	0.6868	-0.32638	0.000916	0.10651	0.12009	0.09552	0.24887	0.039825	-0.14038	-0.044861	0.00473	-0.10086	0.040588	-0.1445	0.26398	0.057831	-0.24948	0.33386	-0.004883	-0.018463
54.483	-0.027161	-0.058594	-0.029755	0.00885	-0.07843	0.046539	0.070801	0.015259	-0.028076	-0.019073	-0.018311	0.002441	0.34851	-0.19791	0.022125	0.043335	-0.006866	0.086823	0.36484	0.1004	-0.29511	0.09491	-0.005646	-0.032196	0.062561	-0.1355	0.35614	-0.003052	-0.10483	0.64179	-0.004272	-0.009003
54.484	-0.025482	-0.015259	-0.042267	-0.00473	-0.073853	0.074615	0.14404	0.017853	0.027313	-0.043488	-0.002136	0.013275	0.01358	-0.044861	0.039368	0.02594	0.011902	0.11414	0.29511	0.10086	-0.12039	0.15335	0.012665	-0.080872	0.053253	0.095367	0.37018	-0.027161	0.15915	0.87601	-0.005493	-0.021667
54.485	-0.030365	-0.032806	-0.048523	0.006409	-0.027618	0.017242	0.16388	0.023499	0.032959	-0.036163	0.016022	0.01709	0.11978	0.092163	0.019989	0.007782	-0.032196	0.15335	0.10727	0.043488	-0.20691	0.18814	0.000305	-0.031433	0.045929	0.11124	0.30762	-0.022888	0.44037	0.91446	-0.007324	-0.016327
54.486	-0.033112	-0.038757	-0.02121	-0.015259	-0.041809	-0.14999	0.177	0.027008	0.072327	-0.009613	-0.003052	0.019989	0.39612	0.16495	-0.056763	0.015869	-0.12558	0.099182	0.1001	0.01236	0.16174	0.28091	-0.004272	0.00351	0.050507	0.014343	0.32288	-0.018616	0.36819	0.73044	-0.002441	-0.015717
54.487	-0.017853	-0.023346	-0.013428	0.010071	-0.022278	-0.27817	0.15915	-0.023651	0.14923	-0.019836	-0.009918	0.019531	-0.19836	0.15228	-0.10376	0.007782	-0.057373	0.061035	-0.010986	0.025177	0.062561	0.27145	-0.006561	-0.015106	0.024109	-0.0383	0.42633	-0.017853	0.10056	0.36774	-0.005951	-0.002747
54.488	0.005035	-0.039063	-0.001068	0.015564	-0.017548	-0.21149	0.13077	0.00946	0.26306	-0.063324	-0.020599	0.023346	-0.22232	0.20111	-0.051727	0.020752	-0.058289	0.069275	-0.14542	-0.002289	0.05661	0.16495	-0.004272	0.052032	0.053406	0.006409	0.31815	-0.010376	-0.031128	-0.015259	-0.003967	-0.012817
54.489	0.017242	-0.005646	-0.008087	0.007935	-0.003357	-0.19745	0.11673	-0.003052	0.3186	-0.096588	-0.016632	0.019531	0.11597	0.27618	0.042877	0.033569	-0.12344	0.10086	-0.4863	-0.014038	0.039825	0.033264	-0.052795	0.10468	0.06546	0.04837	0.079803	-0.009308	0.066528	-0.38849	-0.004272	-0.009766
54.49	0.023041	0.041351	-0.006866	-0.001221	0.036621	-0.18936	0.1294	-0.008392	0.25238	-0.1091	-0.000153	0.019836	0.077515	0.22339	0.097504	0.034332	-0.11963	0.065155	-0.27115	-0.009766	0.16983	-0.085297	-0.058746	0.13046	0.063477	0.016785	-0.009308	-0.031281	0.23499	-0.45242	-0.003204	-0.015411
54.491	0.035858	0.050659	-0.012665	-0.007782	0.091248	-0.159	0.093994	-0.002289	0.096893	-0.050507	0.017548	0.028534	-0.78217	0.13489	0.071411	0.031891	-0.056763	0.065918	-0.18143	0.079498	0.14664	-0.080261	-0.10651	0.040436	0.049438	0.028839	-0.1239	-0.031433	0.39063	-0.43442	-0.002899	-0.015564
54.492	0.036163	0.074158	-0.020294	-0.002441	0.11597	-0.070038	0.088654	0.00412	-0.11856	0.035706	0.030975	0.025787	-1.147	0.059052	-0.013733	0.05249	-0.049438	0.011292	0.16327	0.056152	0.03479	0.040283	-0.082703	0.025482	0.033875	0.002899	-0.14206	0.032959	0.46402	-0.36301	-0.001221	-0.016327
54.493	0.021667	0.055389	0.00824	-0.012665	0.096893	0.070953	0.12421	0.005341	-0.31723	0.002289	0.014038	0.054169	-0.72952	-0.057983	-0.11932	0.058289	-0.02182	0.052643	0.47989	0.010223	0.15442	0.071106	-0.026398	0.049744	0.050201	-0.094604	-0.34363	-0.003815	0.48706	0.4628	-0.000763	-0.018921
54.494	0.003052	0.089111	0.01297	0.001526	0.03891	0.13779	0.14679	0.004272	-0.4071	-0.032959	-0.006866	0.040131	0.19806	-0.11566	-0.10178	0.062103	-0.024719	0.061798	0.41489	0.001984	0.084076	0.097961	-0.050812	0.034027	0.045166	-0.10681	-0.3241	-0.024567	0.35278	1.8143	-0.00061	-0.016632
54.495	0.009155	0.09079	-0.010376	-0.002594	-0.027771	0.21042	0.12192	0.010071	-0.26627	-0.060883	-0.019073	-0.038757	0.52856	-0.13275	-0.048523	0.061035	-0.021667	0.049896	-0.10864	0.025177	-0.23514	0.24567	-0.019989	0.039063	0.053406	-0.1741	-0.15671	-0.040894	0.065155	1.9958	-0.002441	-0.022278
54.496	-0.005341	0.067749	-0.005646	-0.003052	-0.042725	0.29175	0.051575	0.016479	-0.11475	-0.057678	-0.019531	-0.005493	0.41611	-0.12833	0.000153	0.047913	-0.009308	0.000153	-0.15564	0.013275	-0.57999	0.18784	-0.010529	-0.012207	0.023041	-0.08667	0.037537	-0.048523	0.053711	1.1488	-0.005493	-0.019836
54.497	-0.010529	0.079193	-0.001678	0.001678	-0.070496	0.32379	0.023804	0.02121	-0.052338	-0.037842	-0.034943	0.020752	0.052185	-0.015259	0.043793	0.04837	0.03006	0.004425	-0.10178	0.019379	-0.74112	0.019836	0.05188	-0.052795	0.032806	-0.042572	-0.18524	0.052032	0.22553	0.91965	-0.005646	-0.004272
54.498	-0.016174	0.058594	0.000153	-0.000916	-0.059052	0.31036	0.069885	0.010223	-0.019684	0.15533	-0.028992	0.078583	-0.051422	0.35675	0.04303	0.026093	0.035553	0.033112	0.097198	-0.016327	-0.53574	-0.29083	0.037689	-0.098419	0.02243	-0.09079	-0.37552	0.012207	0.21011	0.22034	-0.007629	-0.002136
54.499	-0.01709	0.058136	0.055389	0.024109	-0.085602	0.27527	0.095367	0.007324	0.002289	0.20813	-0.010834	0.086975	0.18662	0.55359	-0.014038	0.00885	0.016174	0.070343	0.12558	-0.006256	-0.31662	-0.20004	-0.019531	0.013885	0.058594	-0.1004	-0.19333	0.003357	-0.10605	-0.34531	-0.003052	-0.006104
54.5	-0.019989	0.03006	0.072632	0.014648	-0.068359	-0.001221	0.1648	0.009766	0.010681	0.17548	-0.009918	0.038147	0.000305	0.41336	-0.055237	0.064697	-0.007629	0.035553	-0.12085	0.001373	0.35233	-0.20279	-0.046234	0.021973	0.066681	-0.048218	-0.056763	-0.049286	-0.36209	-1.0381	-0.001984	-0.008087
54.501	-0.023193	0.013428	0.057983	0.004425	-0.096588	-0.16266	0.17395	0.012512	-0.004425	0.2359	-0.010223	-0.044708	-0.065155	-0.07843	-0.049591	0.07431	0.002594	0.033722	-0.16724	0.018616	0.84335	-0.21484	-0.001068	0.002441	0.033875	0.080261	0.019531	-0.05188	-0.33463	-1.2616	-0.003967	-0.010223
54.502	-0.020294	0.014343	0.051575	-0.001068	-0.10483	-0.25131	0.17181	0.013733	-0.040588	0.30395	0.002594	0.003967	-0.23346	-0.34851	-0.001984	0.07782	0.010834	0.024719	-0.075836	-0.041962	0.55573	-0.25055	0.000763	0.053101	0.037537	0.19928	0.074005	0.01709	-0.31662	-1.1916	-0.011139	-0.012054
54.503	-0.00473	0.036163	0.033722	0.004272	-0.12375	-0.31235	0.13763	0.006104	-0.043182	0.062714	0.009918	0.009918	-0.21896	-0.32974	0.014191	0.037689	-0.001831	0.053406	-0.025635	-0.10757	0.001221	-0.18646	-0.016632	0.081024	0.041351	0.14114	0.1593	-0.04776	-0.57129	-1.2614	-0.004578	-0.014954
54.504	0.015106	0.082855	0.027924	0.020142	-0.029144	-0.31952	0.1442	0.004425	-0.036621	-0.052185	-0.002441	0.08606	0.15823	-0.2446	0.016632	0.001068	-0.03067	0.03067	-0.006561	-0.071564	-0.18539	-0.078125	0.022736	0.031281	0.055542	0.090179	0.21439	-0.10391	-0.47897	-0.63202	-0.000916	-0.00946
54.505	0.015411	0.083923	0.02533	0.012054	0.17395	-0.37811	0.17425	0.005188	-0.040894	-0.032501	0.012207	0.03952	-0.044098	-0.19669	0.03418	0.070648	-0.019684	0.09079	-0.12756	-0.057831	-0.18982	-0.078583	-0.013428	0.02182	0.046539	0.065613	0.23468	0.031433	-0.2626	0.56061	-0.000916	-0.005798
54.506	0.001526	0.072784	0.013123	0.006561	0.15243	-0.3717	0.16602	0.011597	-0.027466	0.032501	0.001831	-0.37476	0.29739	-0.10971	0.019379	0.16449	-0.039825	0.054626	-0.10727	0.056458	-0.16083	0.09552	0.010071	0.007019	0.040894	0.15686	0.48141	0.14908	-0.14267	0.63797	-0.004883	-0.009155
54.507	-0.017853	0.075989	0.005951	-0.019226	0.11383	-0.24185	0.15411	0.003357	-0.054016	0.089111	-0.014801	-0.014954	0.569	0.32425	-0.028076	-0.077362	0.012665	0.11597	-0.18249	0.088348	0.039215	0.28931	0.079041	-0.053253	0.013733	0.14435	0.27359	0.12405	0.098419	1.0657	-0.002441	0.000916
54.508	-0.014801	0.075378	-0.00351	-0.011902	0.056305	-0.085144	0.12238	0.029755	-0.048065	0.071564	-0.005646	-0.039368	0.17181	0.57663	0.000153	0.10864	0.056763	0.069733	-0.12711	0.061493	0.10223	0.33798	0.039978	-0.064697	0.019379	0.04303	-0.30579	0.044403	0.38162	0.92133	0.001831	-0.010376
54.509	-0.016327	0.060577	0	-0.007782	0.016785	-0.063782	0.080872	0.002899	-0.035706	0.12634	-0.006409	0.029755	-0.40283	0.51559	0.083313	0.27008	0.026398	0.12421	-0.11551	0.03479	-0.35614	0.48828	-0.030212	0.015869	0.046692	-0.010986	-0.39673	-0.019836	0.13947	0.40436	-0.001831	-0.023651
54.51	0.000458	0.10117	-0.009308	0.010681	0.019989	-0.10346	0.076752	0.005341	-0.029755	0.071106	-0.003662	0.14572	-0.14877	0.32394	0.037079	-0.034943	0.02594	0.11673	-0.009918	0.038757	-0.2359	0.27817	-0.017853	-0.024719	0.036926	-0.001831	-0.26825	-0.007477	-0.1799	0.27252	0.000305	-0.028381
54.511	0.011444	0.11032	-0.006866	-0.001373	0.073853	-0.11536	0.15274	0.032959	-0.055847	-0.048065	-0.01297	0.30395	-0.3598	0.031891	-0.034637	-0.1622	0.02182	0.11505	-0.005646	0.019379	0.016479	0.16312	-0.028687	0.024109	0.035095	0.020599	0.29984	0.066681	-0.39139	0.46417	-0.00061	-0.037994
54.512	0.03067	0.10513	0.000916	-0.000458	0.090637	-0.081787	0.11795	-0.012512	0.052032	-0.048523	-0.002594	-0.48752	-0.30792	-0.29923	-0.023041	-0.12116	0.03479	0.1329	0.13107	0.00885	0.24628	0.032654	-0.043488	-0.039215	0.044861	0.001373	0.51315	0.001678	-0.53726	-0.26367	-0.001678	-0.058441
54.513	0.046539	0.12405	0.000916	0.003815	0.081635	-0.034332	0.065155	0.012054	0.10407	0.20905	-0.02533	0.16525	-0.67291	-0.026855	-0.020142	-0.072937	0.046539	0.19486	-0.033722	0.030365	-0.031891	-0.052338	-0.050964	-0.072479	0.042419	-0.007935	0.12405	-0.042114	-0.38528	-0.63156	-0.000305	-0.056915
54.514	0.02655	0.14313	0.02121	0.01236	0.031586	0.010223	0.083008	0.006866	0.05661	-0.056	-0.024872	0.020447	0.001984	0.051117	-0.11047	0.011597	0.057983	0.20859	-0.037079	0.02182	-0.3894	0.051575	-0.066376	-0.17578	0.024414	-0.030212	-0.23041	-0.047913	0.10086	-1.0284	-0.002136	-0.050659
54.515	0.017853	0.15945	0.013275	0.019226	-0.024567	0.026398	0.090332	0.002289	-0.025787	-0.49271	-0.020447	-0.12253	0.55313	-0.4097	-0.20294	0.13397	0.035706	0.20401	0.086365	0.001984	-0.20355	0.033264	-0.1059	-0.14771	0.018616	-0.10208	-0.24689	-0.093994	0.3392	-1.021	-0.003662	-0.048981
54.516	0.016022	0.18601	-0.010986	-0.006714	-0.039673	0.066376	0.022736	-0.001221	-0.045319	-0.36057	-0.026398	-0.051422	0.43625	-0.51025	-0.1413	0.083466	-0.033875	0.17273	0.31143	0.003052	0.073242	0.066833	-0.13199	-0.060272	0.033112	-0.18417	-0.37582	-0.16892	0.33066	-0.6662	0.001068	-0.05188
54.517	0.006256	0.21332	-0.021973	-0.009918	-0.033112	0.069427	-0.033417	-0.000916	-0.019684	-0.032196	-0.025787	-0.029144	0.003815	-0.26382	0.002747	0.018616	-0.042419	0.19516	0.13245	0.041199	0.066528	-0.092621	-0.19577	0.054626	0.019836	-0.049286	-0.5751	0.065155	0.32089	0.005646	-0.001984	-0.044098
54.518	0.006104	0.2124	-0.024872	-0.005798	-0.067444	0.049133	-0.027618	0.002747	0.14343	0.12161	0.017395	-0.015564	-0.73166	-0.07019	0.060272	0.008392	-0.002441	0.27191	-0.054474	0.031128	0.39566	-0.22125	-0.18143	0.10361	0.025177	0.058594	-0.6488	0.10147	0.38834	0.75913	0	-0.033569
54.519	-0.008545	0.23941	-0.036926	0.018463	-0.051422	0.018616	0.024567	0.003052	0.2356	0.057678	0.034943	-0.005188	-0.78003	0.23911	0.076141	0.007935	0.066833	0.26398	-0.081635	-0.012207	0.3392	-0.20111	-0.18555	0.013275	0.010223	0.090027	0.14679	0.029297	0.46356	1.1462	0	-0.026855
